<svg width="14" height="10" viewBox="0 0 14 10" fill="none" xmlns="http://www.w3.org/2000/svg">
<g id="Frame 25282">
<path id="Union" fill-rule="evenodd" clip-rule="evenodd" d="M0.483333 0.020752C0.216396 0.020752 0 0.237148 0 0.504085C0 0.771023 0.216396 0.987419 0.483333 0.987419H2.48333C2.75027 0.987419 2.96667 0.771023 2.96667 0.504085C2.96667 0.237148 2.75027 0.020752 2.48333 0.020752H0.483333ZM0.483333 4.33325C0.216396 4.33325 0 4.54965 0 4.81659C0 5.08352 0.216396 5.29992 0.483333 5.29992H5.15C5.41694 5.29992 5.63333 5.08352 5.63333 4.81659C5.63333 4.54965 5.41694 4.33325 5.15 4.33325H0.483333ZM0.483333 8.69263C0.216395 8.69263 0 8.90902 0 9.17596C0 9.4429 0.216395 9.65929 0.483333 9.65929H7.81667C8.0836 9.65929 8.3 9.4429 8.3 9.17596C8.3 8.90902 8.0836 8.69263 7.81667 8.69263H0.483333Z" fill="#BEBEBE"/>
<path id="Union_2" fill-rule="evenodd" clip-rule="evenodd" d="M10.5284 9.6333C10.7953 9.6333 11.0117 9.41691 11.0117 9.14997V1.70166L12.864 3.66881C13.047 3.86315 13.3529 3.87235 13.5472 3.68936C13.7416 3.50636 13.7508 3.20047 13.5678 3.00613L10.8803 0.15196C10.789 0.0549793 10.6617 -1.62125e-05 10.5284 -3.24249e-05C10.3952 -4.95911e-05 10.2679 0.0549126 10.1766 0.151871L7.46492 3.0302C7.28187 3.2245 7.29099 3.53039 7.48529 3.71344C7.67958 3.89648 7.98548 3.88736 8.16852 3.69307L10.0451 1.7012V9.14997C10.0451 9.4169 10.2614 9.6333 10.5284 9.6333Z" fill="#BEBEBE"/>
</g>
</svg>
