<svg width="14" height="10" viewBox="0 0 14 10" fill="none" xmlns="http://www.w3.org/2000/svg">
<g id="Frame 25283">
<path id="Union" fill-rule="evenodd" clip-rule="evenodd" d="M0.483333 9.65918C0.216396 9.65918 0 9.44278 0 9.17585C0 8.90891 0.216396 8.69251 0.483333 8.69251H2.48333C2.75027 8.69251 2.96667 8.90891 2.96667 9.17585C2.96667 9.44278 2.75027 9.65918 2.48333 9.65918H0.483333ZM0.483333 5.34668C0.216396 5.34668 0 5.13028 0 4.86335C0 4.59641 0.216396 4.38001 0.483333 4.38001H5.15C5.41694 4.38001 5.63333 4.59641 5.63333 4.86335C5.63333 5.13028 5.41694 5.34668 5.15 5.34668H0.483333ZM0.483333 0.987307C0.216395 0.987307 0 0.770911 0 0.503973C0 0.237035 0.216395 0.0206394 0.483333 0.0206394H7.81667C8.0836 0.0206394 8.3 0.237035 8.3 0.503973C8.3 0.770911 8.0836 0.987307 7.81667 0.987307H0.483333Z" fill="#BEBEBE"/>
<path id="Union_2" fill-rule="evenodd" clip-rule="evenodd" d="M10.5284 0C10.7953 0 11.0117 0.216395 11.0117 0.483333V7.93164L12.864 5.96449C13.047 5.77015 13.3529 5.76095 13.5472 5.94394C13.7416 6.12694 13.7508 6.43283 13.5678 6.62717L10.8803 9.48134C10.789 9.57832 10.6617 9.63332 10.5284 9.63333C10.3952 9.63335 10.2679 9.57839 10.1766 9.48143L7.46492 6.6031C7.28187 6.4088 7.29099 6.10291 7.48529 5.91987C7.67958 5.73682 7.98548 5.74594 8.16852 5.94024L10.0451 7.93211V0.483333C10.0451 0.216396 10.2614 0 10.5284 0Z" fill="#BEBEBE"/>
</g>
</svg>
