<svg width="20" height="20" viewBox="0 0 20 20" fill="none" xmlns="http://www.w3.org/2000/svg">
<path d="M10 8.5C10.3978 8.5 10.7792 8.65815 11.0605 8.93945C11.3419 9.22076 11.5 9.60218 11.5 10C11.5 10.3978 11.3419 10.7792 11.0605 11.0605C10.7792 11.3419 10.3978 11.5 10 11.5C9.60218 11.5 9.22076 11.3419 8.93945 11.0605C8.65815 10.7792 8.5 10.3978 8.5 10L8.50781 9.85156C8.54195 9.50826 8.69337 9.18554 8.93945 8.93945C9.18554 8.69337 9.50826 8.54195 9.85156 8.50781L10 8.5Z" fill="#6B7280" stroke="#6B7280"/>
<path fill-rule="evenodd" clip-rule="evenodd" d="M0.458008 10C1.73201 5.943 5.52201 3 10 3C14.478 3 18.268 5.943 19.542 10C18.268 14.057 14.478 17 10 17C5.52201 17 1.73201 14.057 0.458008 10ZM14 10C14 11.0609 13.5786 12.0783 12.8284 12.8284C12.0783 13.5786 11.0609 14 10 14C8.93914 14 7.92173 13.5786 7.17158 12.8284C6.42143 12.0783 6.00001 11.0609 6.00001 10C6.00001 8.93913 6.42143 7.92172 7.17158 7.17157C7.92173 6.42143 8.93914 6 10 6C11.0609 6 12.0783 6.42143 12.8284 7.17157C13.5786 7.92172 14 8.93913 14 10Z" fill="#6B7280"/>
</svg>
