<svg width="20" height="20" viewBox="0 0 20 20" fill="none" xmlns="http://www.w3.org/2000/svg">
<path d="M3.0083 2.51221C3.13924 2.51118 3.26567 2.56185 3.35986 2.65283L3.3833 2.67529L5.13428 4.42725L5.39014 4.68408L5.71338 4.52002C6.95861 3.88949 8.3273 3.54263 9.72021 3.50342L9.99951 3.49951C14.1972 3.49951 17.7581 6.22307 19.0142 9.99951C18.4328 11.7426 17.3608 13.2822 15.9224 14.4292L15.4849 14.7778L17.3472 16.6401C17.4382 16.7344 17.4889 16.8607 17.4878 16.9917C17.4867 17.1228 17.434 17.2486 17.3413 17.3413C17.2486 17.434 17.1228 17.4867 16.9917 17.4878C16.8607 17.4889 16.7344 17.4382 16.6401 17.3472L2.65283 3.35986C2.56185 3.26567 2.51118 3.13924 2.51221 3.0083C2.51335 2.8772 2.56599 2.7514 2.65869 2.65869C2.7514 2.56599 2.8772 2.51335 3.0083 2.51221ZM7.46826 7.43018L7.88818 7.18115L9.12842 8.42139L9.33154 8.62549L9.60986 8.55127C9.86416 8.48374 10.1321 8.48394 10.3862 8.55225C10.6404 8.62067 10.8729 8.75476 11.0591 8.94092C11.2451 9.12699 11.3793 9.35872 11.4478 9.61279C11.5161 9.86687 11.5162 10.1348 11.4487 10.3892L11.3745 10.6675L13.5483 12.8413L13.8765 12.2856C14.3836 11.4263 14.5907 10.423 14.4653 9.43311C14.3398 8.44301 13.8888 7.52261 13.1831 6.81689C12.4774 6.11116 11.557 5.66016 10.5669 5.53467C9.70717 5.42574 8.83694 5.56657 8.06006 5.93799L7.46826 5.34521V7.43018Z" fill="#6B7280" stroke="#6B7280"/>
<path d="M12.454 16.6969L9.75001 13.9919C8.77769 13.931 7.86103 13.5173 7.17206 12.8285C6.4831 12.1397 6.06918 11.2232 6.00801 10.2509L2.33501 6.57788C1.49022 7.5839 0.852357 8.7468 0.458008 9.99988C1.73201 14.0569 5.52301 16.9999 10 16.9999C10.847 16.9999 11.669 16.8949 12.454 16.6969Z" fill="#6B7280"/>
</svg>
